<svg xmlns="http://www.w3.org/2000/svg" xmlns:xlink="http://www.w3.org/1999/xlink" width="407" zoomAndPan="magnify" viewBox="0 0 305.25 149.999998" height="200" preserveAspectRatio="xMidYMid meet" version="1.0"><defs><g/><clipPath id="e02dde4e5d"><rect x="0" width="169" y="0" height="20"/></clipPath><clipPath id="030e7240d0"><path d="M 175.507812 44 L 228.484375 44 L 228.484375 105.863281 L 175.507812 105.863281 Z M 175.507812 44 " clip-rule="nonzero"/></clipPath><clipPath id="7c87380ae2"><rect x="0" width="154" y="0" height="104"/></clipPath><clipPath id="597ed275dc"><path d="M 5 36 L 54.648438 36 L 54.648438 83 L 5 83 Z M 5 36 " clip-rule="nonzero"/></clipPath><clipPath id="2a1df5bdb0"><rect x="0" width="55" y="0" height="105"/></clipPath></defs><g transform="matrix(1, 0, 0, 1, 74, 106)"><g clip-path="url(#e02dde4e5d)"><g fill="#38b6ff" fill-opacity="1"><g transform="translate(1.568016, 14.909227)"><g><path d="M 6.4375 0.1875 C 5.34375 0.1875 4.347656 -0.0507812 3.453125 -0.53125 C 2.566406 -1.007812 1.867188 -1.671875 1.359375 -2.515625 C 0.847656 -3.367188 0.59375 -4.328125 0.59375 -5.390625 C 0.59375 -6.460938 0.847656 -7.421875 1.359375 -8.265625 C 1.867188 -9.109375 2.566406 -9.769531 3.453125 -10.25 C 4.347656 -10.726562 5.347656 -10.96875 6.453125 -10.96875 C 7.390625 -10.96875 8.234375 -10.800781 8.984375 -10.46875 C 9.742188 -10.144531 10.378906 -9.675781 10.890625 -9.0625 L 9.296875 -7.578125 C 8.566406 -8.421875 7.660156 -8.84375 6.578125 -8.84375 C 5.910156 -8.84375 5.3125 -8.695312 4.78125 -8.40625 C 4.257812 -8.113281 3.851562 -7.703125 3.5625 -7.171875 C 3.269531 -6.648438 3.125 -6.054688 3.125 -5.390625 C 3.125 -4.722656 3.269531 -4.125 3.5625 -3.59375 C 3.851562 -3.070312 4.257812 -2.664062 4.78125 -2.375 C 5.3125 -2.082031 5.910156 -1.9375 6.578125 -1.9375 C 7.660156 -1.9375 8.566406 -2.363281 9.296875 -3.21875 L 10.890625 -1.734375 C 10.378906 -1.109375 9.742188 -0.628906 8.984375 -0.296875 C 8.222656 0.0234375 7.375 0.1875 6.4375 0.1875 Z M 6.4375 0.1875 "/></g></g></g><g fill="#38b6ff" fill-opacity="1"><g transform="translate(25.197841, 14.909227)"><g><path d="M 6.5 0.1875 C 5.382812 0.1875 4.375 -0.0507812 3.46875 -0.53125 C 2.570312 -1.019531 1.867188 -1.6875 1.359375 -2.53125 C 0.847656 -3.382812 0.59375 -4.335938 0.59375 -5.390625 C 0.59375 -6.453125 0.847656 -7.40625 1.359375 -8.25 C 1.867188 -9.09375 2.570312 -9.753906 3.46875 -10.234375 C 4.375 -10.722656 5.382812 -10.96875 6.5 -10.96875 C 7.625 -10.96875 8.628906 -10.722656 9.515625 -10.234375 C 10.410156 -9.753906 11.113281 -9.09375 11.625 -8.25 C 12.144531 -7.40625 12.40625 -6.453125 12.40625 -5.390625 C 12.40625 -4.335938 12.144531 -3.382812 11.625 -2.53125 C 11.113281 -1.6875 10.410156 -1.019531 9.515625 -0.53125 C 8.628906 -0.0507812 7.625 0.1875 6.5 0.1875 Z M 6.5 -1.9375 C 7.132812 -1.9375 7.707031 -2.082031 8.21875 -2.375 C 8.738281 -2.664062 9.144531 -3.070312 9.4375 -3.59375 C 9.726562 -4.125 9.875 -4.722656 9.875 -5.390625 C 9.875 -6.054688 9.726562 -6.648438 9.4375 -7.171875 C 9.144531 -7.703125 8.738281 -8.113281 8.21875 -8.40625 C 7.707031 -8.695312 7.132812 -8.84375 6.5 -8.84375 C 5.863281 -8.84375 5.285156 -8.695312 4.765625 -8.40625 C 4.253906 -8.113281 3.851562 -7.703125 3.5625 -7.171875 C 3.269531 -6.648438 3.125 -6.054688 3.125 -5.390625 C 3.125 -4.722656 3.269531 -4.125 3.5625 -3.59375 C 3.851562 -3.070312 4.253906 -2.664062 4.765625 -2.375 C 5.285156 -2.082031 5.863281 -1.9375 6.5 -1.9375 Z M 6.5 -1.9375 "/></g></g></g><g fill="#38b6ff" fill-opacity="1"><g transform="translate(50.538159, 14.909227)"><g><path d="M 11.171875 -10.78125 L 11.171875 0 L 9.125 0 L 3.75 -6.546875 L 3.75 0 L 1.28125 0 L 1.28125 -10.78125 L 3.34375 -10.78125 L 8.703125 -4.234375 L 8.703125 -10.78125 Z M 11.171875 -10.78125 "/></g></g></g><g fill="#38b6ff" fill-opacity="1"><g transform="translate(75.323719, 14.909227)"><g><path d="M 3.515625 -8.75 L 0.0625 -8.75 L 0.0625 -10.78125 L 9.453125 -10.78125 L 9.453125 -8.75 L 6.015625 -8.75 L 6.015625 0 L 3.515625 0 Z M 3.515625 -8.75 "/></g></g></g><g fill="#38b6ff" fill-opacity="1"><g transform="translate(97.181403, 14.909227)"><g><path d="M 8.15625 0 L 6.0625 -3 L 3.78125 -3 L 3.78125 0 L 1.28125 0 L 1.28125 -10.78125 L 5.953125 -10.78125 C 6.898438 -10.78125 7.722656 -10.617188 8.421875 -10.296875 C 9.128906 -9.984375 9.671875 -9.535156 10.046875 -8.953125 C 10.429688 -8.367188 10.625 -7.675781 10.625 -6.875 C 10.625 -6.070312 10.429688 -5.378906 10.046875 -4.796875 C 9.660156 -4.210938 9.113281 -3.769531 8.40625 -3.46875 L 10.828125 0 Z M 8.109375 -6.875 C 8.109375 -7.476562 7.910156 -7.941406 7.515625 -8.265625 C 7.128906 -8.585938 6.5625 -8.75 5.8125 -8.75 L 3.78125 -8.75 L 3.78125 -4.984375 L 5.8125 -4.984375 C 6.5625 -4.984375 7.128906 -5.148438 7.515625 -5.484375 C 7.910156 -5.816406 8.109375 -6.28125 8.109375 -6.875 Z M 8.109375 -6.875 "/></g></g></g><g fill="#38b6ff" fill-opacity="1"><g transform="translate(120.842046, 14.909227)"><g><path d="M 6.5 0.1875 C 5.382812 0.1875 4.375 -0.0507812 3.46875 -0.53125 C 2.570312 -1.019531 1.867188 -1.6875 1.359375 -2.53125 C 0.847656 -3.382812 0.59375 -4.335938 0.59375 -5.390625 C 0.59375 -6.453125 0.847656 -7.40625 1.359375 -8.25 C 1.867188 -9.09375 2.570312 -9.753906 3.46875 -10.234375 C 4.375 -10.722656 5.382812 -10.96875 6.5 -10.96875 C 7.625 -10.96875 8.628906 -10.722656 9.515625 -10.234375 C 10.410156 -9.753906 11.113281 -9.09375 11.625 -8.25 C 12.144531 -7.40625 12.40625 -6.453125 12.40625 -5.390625 C 12.40625 -4.335938 12.144531 -3.382812 11.625 -2.53125 C 11.113281 -1.6875 10.410156 -1.019531 9.515625 -0.53125 C 8.628906 -0.0507812 7.625 0.1875 6.5 0.1875 Z M 6.5 -1.9375 C 7.132812 -1.9375 7.707031 -2.082031 8.21875 -2.375 C 8.738281 -2.664062 9.144531 -3.070312 9.4375 -3.59375 C 9.726562 -4.125 9.875 -4.722656 9.875 -5.390625 C 9.875 -6.054688 9.726562 -6.648438 9.4375 -7.171875 C 9.144531 -7.703125 8.738281 -8.113281 8.21875 -8.40625 C 7.707031 -8.695312 7.132812 -8.84375 6.5 -8.84375 C 5.863281 -8.84375 5.285156 -8.695312 4.765625 -8.40625 C 4.253906 -8.113281 3.851562 -7.703125 3.5625 -7.171875 C 3.269531 -6.648438 3.125 -6.054688 3.125 -5.390625 C 3.125 -4.722656 3.269531 -4.125 3.5625 -3.59375 C 3.851562 -3.070312 4.253906 -2.664062 4.765625 -2.375 C 5.285156 -2.082031 5.863281 -1.9375 6.5 -1.9375 Z M 6.5 -1.9375 "/></g></g></g><g fill="#38b6ff" fill-opacity="1"><g transform="translate(146.182364, 14.909227)"><g><path d="M 1.28125 -10.78125 L 3.78125 -10.78125 L 3.78125 -2.03125 L 9.1875 -2.03125 L 9.1875 0 L 1.28125 0 Z M 1.28125 -10.78125 "/></g></g></g></g></g><g clip-path="url(#030e7240d0)"><path fill="#d9d9d9" d="M 215.617188 56.03125 C 217.152344 57.371094 219.035156 58.234375 221.046875 58.523438 C 219.992188 59.402344 219.144531 60.503906 218.546875 61.734375 C 217.585938 61.03125 216.410156 60.679688 215.222656 60.742188 C 214.179688 60.804688 213.140625 60.660156 212.160156 60.320312 C 197.699219 55.367188 181.964844 63.074219 177.003906 77.527344 C 175.011719 83.34375 175.011719 89.660156 177.003906 95.476562 C 177.34375 96.460938 177.488281 97.496094 177.425781 98.535156 C 177.265625 101.359375 179.425781 103.78125 182.25 103.941406 C 182.441406 103.949219 182.632812 103.949219 182.824219 103.941406 C 183.867188 103.878906 184.90625 104.023438 185.890625 104.355469 C 200.351562 109.316406 216.085938 101.609375 221.046875 87.15625 C 223.039062 81.339844 223.039062 75.023438 221.046875 69.207031 C 220.703125 68.222656 220.5625 67.1875 220.617188 66.148438 C 220.695312 64.8125 220.25 63.511719 219.375 62.5 C 220.863281 59.089844 224.378906 57.027344 228.085938 57.378906 C 228.382812 57.40625 228.640625 57.183594 228.667969 56.886719 C 228.695312 56.597656 228.480469 56.339844 228.191406 56.304688 C 226.851562 56.179688 225.5 56.332031 224.21875 56.757812 C 224.664062 54.511719 224.367188 52.183594 223.375 50.121094 C 223.0625 49.472656 222.648438 48.875 222.148438 48.347656 C 219.84375 45.914062 216.753906 44.378906 213.421875 44 C 212.90625 43.9375 212.433594 44.300781 212.355469 44.8125 C 211.835938 48.121094 212.5 51.511719 214.230469 54.378906 C 214.601562 55 215.074219 55.554688 215.617188 56.03125 " fill-opacity="1" fill-rule="nonzero"/></g><g transform="matrix(1, 0, 0, 1, 22, 22)"><g clip-path="url(#7c87380ae2)"><g fill="#d9d9d9" fill-opacity="1"><g transform="translate(1.86071, 81.709154)"><g><path d="M 5.140625 -62.515625 L 21.140625 -62.515625 L 21.140625 0 L 5.140625 0 Z M 5.140625 -62.515625 "/></g></g></g><g fill="#d9d9d9" fill-opacity="1"><g transform="translate(21.320742, 81.709154)"><g><path d="M 51.8125 -22.75 C 51.8125 -22.632812 51.726562 -21.3125 51.5625 -18.78125 L 18.359375 -18.78125 C 19.035156 -16.425781 20.34375 -14.613281 22.28125 -13.34375 C 24.21875 -12.082031 26.648438 -11.453125 29.578125 -11.453125 C 31.765625 -11.453125 33.65625 -11.757812 35.25 -12.375 C 36.851562 -13 38.472656 -14.015625 40.109375 -15.421875 L 48.53125 -6.65625 C 44.09375 -1.707031 37.601562 0.765625 29.0625 0.765625 C 23.726562 0.765625 19.039062 -0.242188 15 -2.265625 C 10.957031 -4.296875 7.828125 -7.109375 5.609375 -10.703125 C 3.390625 -14.296875 2.28125 -18.367188 2.28125 -22.921875 C 2.28125 -27.410156 3.359375 -31.4375 5.515625 -35 C 7.679688 -38.570312 10.671875 -41.367188 14.484375 -43.390625 C 18.304688 -45.410156 22.601562 -46.421875 27.375 -46.421875 C 31.925781 -46.421875 36.054688 -45.476562 39.765625 -43.59375 C 43.472656 -41.71875 46.40625 -38.992188 48.5625 -35.421875 C 50.726562 -31.859375 51.8125 -27.632812 51.8125 -22.75 Z M 27.46875 -35.046875 C 25 -35.046875 22.929688 -34.34375 21.265625 -32.9375 C 19.609375 -31.53125 18.554688 -29.625 18.109375 -27.21875 L 36.8125 -27.21875 C 36.363281 -29.625 35.3125 -31.53125 33.65625 -32.9375 C 32 -34.34375 29.9375 -35.046875 27.46875 -35.046875 Z M 27.46875 -35.046875 "/></g></g></g><g fill="#d9d9d9" fill-opacity="1"><g transform="translate(68.497966, 81.709154)"><g><path d="M 64.625 -46.421875 C 70.238281 -46.421875 74.71875 -44.734375 78.0625 -41.359375 C 81.40625 -37.992188 83.078125 -32.914062 83.078125 -26.125 L 83.078125 0 L 67.0625 0 L 67.0625 -23.5 C 67.0625 -26.707031 66.457031 -29.066406 65.25 -30.578125 C 64.039062 -32.097656 62.34375 -32.859375 60.15625 -32.859375 C 57.738281 -32.859375 55.800781 -32.015625 54.34375 -30.328125 C 52.882812 -28.640625 52.15625 -26.082031 52.15625 -22.65625 L 52.15625 0 L 36.140625 0 L 36.140625 -23.5 C 36.140625 -29.738281 33.835938 -32.859375 29.234375 -32.859375 C 26.765625 -32.859375 24.796875 -32.015625 23.328125 -30.328125 C 21.867188 -28.640625 21.140625 -26.082031 21.140625 -22.65625 L 21.140625 0 L 5.140625 0 L 5.140625 -45.65625 L 20.390625 -45.65625 L 20.390625 -40.859375 C 22.078125 -42.710938 24.082031 -44.101562 26.40625 -45.03125 C 28.738281 -45.957031 31.28125 -46.421875 34.03125 -46.421875 C 37.238281 -46.421875 40.101562 -45.832031 42.625 -44.65625 C 45.15625 -43.476562 47.207031 -41.679688 48.78125 -39.265625 C 50.582031 -41.566406 52.859375 -43.332031 55.609375 -44.5625 C 58.359375 -45.800781 61.363281 -46.421875 64.625 -46.421875 Z M 64.625 -46.421875 "/></g></g></g></g></g><g transform="matrix(1, 0, 0, 1, 219, 22)"><g clip-path="url(#2a1df5bdb0)"><g clip-path="url(#597ed275dc)"><g fill="#d9d9d9" fill-opacity="1"><g transform="translate(0.370007, 82.696129)"><g><path d="M 34.875 -46.421875 C 40.550781 -46.421875 45.113281 -44.734375 48.5625 -41.359375 C 52.019531 -37.992188 53.75 -32.914062 53.75 -26.125 L 53.75 0 L 37.75 0 L 37.75 -23.5 C 37.75 -29.738281 35.25 -32.859375 30.25 -32.859375 C 27.5 -32.859375 25.289062 -31.957031 23.625 -30.15625 C 21.96875 -28.363281 21.140625 -25.671875 21.140625 -22.078125 L 21.140625 0 L 5.140625 0 L 5.140625 -45.65625 L 20.390625 -45.65625 L 20.390625 -40.6875 C 22.179688 -42.539062 24.3125 -43.957031 26.78125 -44.9375 C 29.257812 -45.925781 31.957031 -46.421875 34.875 -46.421875 Z M 34.875 -46.421875 "/></g></g></g></g></g></g></svg>